<?xml version="1.0" encoding="UTF-8" standalone="no"?>
<!DOCTYPE svg PUBLIC "-//W3C//DTD SVG 1.1//EN" "http://www.w3.org/Graphics/SVG/1.1/DTD/svg11.dtd">
<svg width="100%" height="100%" viewBox="0 0 193 194" version="1.1" xmlns="http://www.w3.org/2000/svg" xmlns:xlink="http://www.w3.org/1999/xlink" xml:space="preserve" xmlns:serif="http://www.serif.com/" style="fill-rule:evenodd;clip-rule:evenodd;stroke-miterlimit:10;">
    <circle cx="95.5" cy="96.7" r="87.5" style="fill:white;stroke:rgb(127,127,127);stroke-width:2px;"/>
    <g>
        <g>
            <g>
                <g>
                    <path d="M136.8,99.3C136.7,99.3 132.8,96.7 128.1,93.4L96.6,72C96,71.6 95.2,71.6 94.6,72L63.1,93.5C58.4,96.7 54.4,99.4 54.4,99.4C54.3,99.4 54.3,103.3 54.3,108.2L54.3,134.3C54.3,134.9 55,135.4 55.8,135.4L81.4,135.4C82.2,135.4 82.9,134.9 82.9,134.3L82.9,107.3C82.9,106 84.3,104.9 86,104.9L105.2,104.9C106.9,104.9 108.3,106 108.3,107.3L108.3,134.3C108.3,134.9 109,135.4 109.8,135.4L135.5,135.4C136.3,135.4 137,134.9 137,134.3L137,108.2C137,103.3 136.9,99.3 136.8,99.3Z" style="fill:rgb(127,127,127);fill-rule:nonzero;"/>
                    <path d="M139.2,87.2L124.7,77.3L124.7,66.4C124.7,65.9 124.3,65.5 123.8,65.5L113.4,65.5C112.9,65.5 112.5,65.9 112.5,66.4L112.5,69L97.4,58.6C96.3,57.8 94.8,57.8 93.6,58.6L51.8,86.8C49.9,88.1 49.4,90.6 50.7,92.4C52,94.3 54.5,94.8 56.3,93.5L95.4,67.1L134.6,93.9C135.3,94.4 136.1,94.6 136.9,94.6C138.2,94.6 139.5,94 140.3,92.8C141.6,91 141.1,88.4 139.2,87.2Z" style="fill:rgb(127,127,127);fill-rule:nonzero;"/>
                </g>
            </g>
        </g>
    </g>
</svg>
