<?xml version="1.0" encoding="UTF-8" standalone="no"?>
<!DOCTYPE svg PUBLIC "-//W3C//DTD SVG 1.1//EN" "http://www.w3.org/Graphics/SVG/1.1/DTD/svg11.dtd">
<svg width="100%" height="100%" viewBox="0 0 267 108" version="1.1" xmlns="http://www.w3.org/2000/svg" xmlns:xlink="http://www.w3.org/1999/xlink" xml:space="preserve" xmlns:serif="http://www.serif.com/" style="fill-rule:evenodd;clip-rule:evenodd;stroke-linejoin:round;stroke-miterlimit:2;">
    <g id="Artboard1" transform="matrix(1,0,0,1,0,1)">
        <rect x="0" y="-1" width="267" height="108" style="fill:none;"/>
        <g id="medalian">
            <g transform="matrix(0.680802,0,0,0.680802,-49.597032,-75.643522)">
                <path d="M210.075,238.577L210.075,176.725C209.6,165.721 202.018,157.549 191.269,155.401C186.303,154.411 181.148,154.116 176.064,153.969C168.202,153.74 160.338,153.906 152.065,153.906L152.065,126.91L133.623,126.91L133.623,238.533L152.284,238.533L152.284,168.651C161.375,168.651 170.148,168.382 178.891,168.749C184.302,168.983 188.451,172.093 190.027,177.365C191.184,181.239 191.838,185.406 191.896,189.451C192.106,204.567 191.981,237.205 191.981,238.577L210.075,238.577ZM238.833,238.614C238.833,233.248 238.764,207.584 238.833,192.575C238.849,189.595 239.165,186.58 239.573,183.621C240.879,174.138 245.785,169.448 255.303,168.579C259.124,168.227 262.98,168.182 266.896,167.998L266.896,153.924C257.755,154.09 248.751,153.132 239.939,155.58C229.867,158.377 223.307,164.65 221.377,175.132C220.706,178.715 220.349,182.395 220.327,186.038L220.327,238.614L238.833,238.614Z" style="fill:rgb(35,31,32);fill-rule:nonzero;"/>
            </g>
            <g transform="matrix(0.680802,0,0,0.680802,-49.597032,-75.643522)">
                <path d="M111.495,224.01C101.982,223.134 97.081,218.45 95.765,208.966C95.359,206.003 95.044,202.995 95.026,200.007C95.005,194.094 95.013,181.621 95.026,168.653L122.628,168.653L122.628,154.28L95.048,154.28C95.062,139.744 95.081,127.557 95.026,127.281L76.517,127.281C76.456,128.271 76.405,190 76.517,206.553C76.55,210.195 76.908,213.874 77.57,217.459C79.501,227.942 86.068,234.214 96.141,237.007C104.953,239.458 113.947,238.501 123.099,238.665L123.099,224.582C119.174,224.402 115.321,224.358 111.495,224.01Z" style="fill:rgb(35,31,32);fill-rule:nonzero;"/>
            </g>
            <g transform="matrix(0.680802,0,0,0.680802,-49.597032,-75.643522)">
                <path d="M371.368,153.973L388.878,153.973C389.842,153.973 391.195,155.433 391.599,156.481C399.006,175.731 415.675,219.59 416.508,221.574C418.6,217.386 434.186,176.692 441.653,156.637C442.452,154.498 443.451,153.89 445.716,153.89L461.791,153.89C461.468,154.972 440.224,206.766 429.92,231.904C427.819,237.031 424.391,239.805 418.766,239.621C417.541,239.586 416.315,239.572 415.094,239.621C409.194,239.867 405.61,236.976 403.421,231.61C395.333,211.796 374.038,160.463 371.368,153.973Z" style="fill:rgb(35,31,32);fill-rule:nonzero;"/>
            </g>
            <g transform="matrix(0.680802,0,0,0.680802,-49.597032,-75.643522)">
                <path d="M296.627,266.277C302.288,266.277 307.483,266.174 312.676,266.328C314.854,266.393 315.919,265.777 316.865,263.668C332.674,228.402 348.599,193.182 364.49,157.946C365.006,156.81 365.421,155.632 366.005,154.179C360.164,154.179 354.839,154.258 349.514,154.133C347.665,154.09 346.798,154.734 346.073,156.412C341.905,166.072 337.623,175.68 333.369,185.308C328.44,196.441 323.505,207.565 318.372,219.156C317.019,215.977 315.84,213.252 314.697,210.515C307.224,192.632 299.778,174.741 292.248,156.891C291.804,155.844 290.716,154.335 289.88,154.304C284.029,154.081 278.168,154.183 272.01,154.183C272.342,155.127 272.508,155.748 272.767,156.327C284.101,181.709 295.352,207.132 306.879,232.424C308.807,236.661 309.337,240.058 306.964,244.385C303.155,251.336 300.144,258.719 296.627,266.277Z" style="fill:rgb(35,31,32);fill-rule:nonzero;"/>
            </g>
            <g transform="matrix(0.680802,0,0,0.680802,-49.597032,-75.643522)">
                <path d="M461.791,144.728L424.389,127.777L391.004,112.629C389.125,111.778 386.996,113.153 386.996,115.216L386.996,124.882C386.996,126.364 385.857,127.594 384.383,127.71L287.4,135.479L171.9,144.728L461.791,144.728Z" style="fill:rgb(255,80,0);fill-rule:nonzero;"/>
            </g>
            <g transform="matrix(0.680802,0,0,0.680802,-49.597032,-75.643522)">
                <path d="M442.873,239.753L441.88,239.753L441.88,235.893L440.607,235.893L440.607,235.066L444.146,235.066L444.146,235.893L442.873,235.893L442.873,239.753Z" style="fill:rgb(35,31,32);fill-rule:nonzero;"/>
            </g>
            <g transform="matrix(0.680802,0,0,0.680802,-49.597032,-75.643522)">
                <path d="M446.688,239.753L445.559,236.076L445.53,236.076C445.57,236.824 445.591,237.323 445.591,237.573L445.591,239.753L444.703,239.753L444.703,235.066L446.056,235.066L447.165,238.65L447.184,238.65L448.36,235.066L449.713,235.066L449.713,239.753L448.787,239.753L448.787,237.535C448.787,237.429 448.788,237.309 448.791,237.173C448.795,237.036 448.809,236.673 448.835,236.083L448.806,236.083L447.598,239.753L446.688,239.753Z" style="fill:rgb(35,31,32);fill-rule:nonzero;"/>
            </g>
        </g>
    </g>
</svg>
